Patient4_TMGait_0pt8_01_left_05_EMG.mot
version=1
nRows=41
nColumns=33
inDegrees=no
endheader
time	1LAddLong	2LGlutMax	3LGlutMed	4LIliopsoas	5LSemiMemb	6LBicFemLong	7LRecFem	8LVastMed	9LVastLat	10LGasMed	11LTibAnt	12lTibPost	13LPeroneusLong	14LSol	15LExtDigLong	16LFlexDigLong	17RAddLong	18RGlutMax	19RGlutMed	20RIliopsoas	21RSemiMemb	22RBicFemLong	23RRecFem	24RVastMed	25RVastLat	26RGasMed	27RTibAnt	28RTibPost	29RPeroneusLong	30RSol	31RExtDigLong	32RFlexDigLong
5.525	0.036926	0.030823	0.31937	0.011292	0.03418	-0.094604	-0.33249	-0.034485	-0.056152	-0.19562	-0.003662	-0.078583	0.027924	-0.54611	-0.018311	-0.26749	-0.058441	0.13351	0.16037	0.2359	0.57159	0.42099	-0.62073	-0.23712	-0.047455	-0.015106	0.097198	-0.010223	0.088196	0.14282	-0.000153	-0.014191
5.526	0.045166	0.057526	0.42526	-0.009613	0.029602	-0.095978	-0.32577	0.034485	-0.057678	-0.3093	-0.023804	-0.089874	0.023651	0.18906	-0.079956	0.5365	-0.000763	0.023651	-0.001373	0.1413	0.49789	0.35004	-0.41596	-0.26337	-0.22797	-0.019531	0.33875	-0.011292	-0.14282	0.065002	-0.000305	-0.003357
5.527	0.030975	0.063019	0.50415	-0.00351	0.011749	-0.10742	-0.3154	-0.000458	-0.049286	-0.18402	0.028839	-0.010529	0.082092	0.81009	-0.14679	-0.28183	0.049438	-0.058899	0.29129	0.06134	0.52902	0.28198	-0.23163	-0.44235	-0.38879	-0.011597	0.38437	-0.007019	-0.00351	-0.044861	0.002136	-0.002747
5.528	0.041809	0.026398	0.44403	-0.000458	-0.004425	-0.026093	-0.29587	0.00061	-0.057526	0.12482	-0.001221	-0.035858	0.009918	0.89401	-0.058594	0.38101	0.047607	-0.14313	0.66727	0.018616	0.31754	0.28488	-0.23773	-0.27893	-0.29602	-0.0177	0.36514	-0.007782	-0.29282	-0.13016	0.00473	-0.005493
5.529	0.032654	0.011292	0.55664	0.000305	0.019989	0.042725	-0.26093	-0.003662	-0.051575	0.22369	-0.011749	-0.084229	0.13001	0.71045	0.034943	0.081329	-0.014648	-0.1236	0.64682	-0.026855	0.15961	0.34973	-0.27481	-0.050507	-0.16586	-0.002136	0.44723	-0.001984	-1.1385	-0.20294	-0.000458	-0.012817
5.53	0.037689	-0.005035	0.82825	0.018616	-0.00351	0.027924	-0.22797	0.006104	-0.053406	0.242	-0.019531	-0.36224	0.21622	0.37003	0.066833	0.1326	-0.0354	-0.072021	0.35065	-0.12985	0.27954	0.41931	-0.30487	0.11856	-0.09079	-0.006561	0.15274	-0.007172	-1.4342	-0.098724	0.001526	-0.007629
5.531	0.032654	-0.062714	0.64987	0.01297	0.014038	0.005951	-0.23071	-0.00473	-0.056	0.43152	-0.011749	0.41061	0.23651	-0.24857	0.065002	-0.12344	0.02121	0.002136	0.45136	-0.14038	0.51605	0.28671	-0.26428	0.18936	-0.05188	-0.014648	0.13519	-0.011597	-0.41092	-0.082245	-0.001068	-0.011902
5.532	0.03006	-0.038757	0.60577	0.016174	0.050049	0.00946	-0.21347	-0.001068	-0.047913	0.25238	-0.007172	0.046692	0.24139	-0.54001	0.034485	-0.11185	0.025024	0.18051	0.1358	-0.11765	0.37552	0.16083	-0.20783	0.23819	-0.035553	-0.015869	0.27466	-0.00824	0.67596	-0.20325	0	-0.00824
5.533	0.034332	-0.014801	0.62943	-0.016937	0.054321	0.007172	-0.21164	0.006104	-0.044403	0.35248	-0.005951	-0.12283	0.26642	-0.42145	0.008087	0.12604	0.037537	0.20279	0.071106	-0.079193	-0.003357	0.18082	-0.1329	0.25681	-0.059052	-0.000916	0.19058	-0.003052	0.40543	-0.19974	0.001984	0.004425
5.534	0.024109	-0.077057	0.62561	0.002136	0.021515	0.029755	-0.18601	0.002594	-0.042114	-0.25284	0.007935	-0.13001	0.2861	-0.271	-0.011444	-0.040283	0.024719	0.14114	0.10651	0.026398	-0.20966	0.21088	-0.052948	0.18097	0.39063	0.006409	-0.055695	-0.009308	0.36774	-0.14587	0.001831	0.001678
5.535	0.023193	-0.029602	0.69961	-0.005798	-0.012665	0.052948	-0.18112	0.002594	-0.051422	-0.24918	0.003815	-0.02594	0.16052	-0.16586	0.014648	0.027466	0.001526	0.15182	0.044098	0.14923	-0.16281	0.19959	-0.042877	0.13992	0.54672	0.002747	-0.13886	-0.006561	0.40939	-0.14358	0.010071	-0.002289
5.536	0.025024	-0.010376	0.64789	0.021515	-0.015564	0.066681	-0.16892	0.001831	-0.047607	0.039978	-0.001984	-0.11307	-0.053558	-0.38864	0.065613	0.092468	0.001221	0.14511	0.048523	0.17593	0.17899	0.17761	-0.033417	0.18509	0.21591	-0.007019	-0.28259	-0.011292	0.18402	-0.008545	0.000763	-0.005341
5.537	0.042877	-0.040588	0.69076	-0.00061	-0.014343	0.065918	-0.13534	-0.005341	-0.040588	0.20355	0.000153	-0.033264	-0.16922	-0.26962	0.103	-0.32364	0.037842	0.10483	0.12512	0.13275	0.36499	0.07843	-0.091705	0.093384	-0.090332	-0.012512	-0.93216	-0.01297	-0.011749	0.16327	-0.003967	-0.006409
5.538	0.037384	-0.018005	0.71106	0.001831	0.058899	0.042572	-0.13687	0.002899	-0.017242	0.39551	0.010071	-0.023804	-0.23911	0.31387	0.090332	0.37628	0.063934	-0.076294	0.016632	0.12344	0.83801	0.008087	-0.095062	-0.10056	-0.016785	-0.018463	-0.8049	-0.011292	-0.11963	0.098419	-0.000916	-0.00824
5.539	0.036163	-0.001221	0.70938	0	0.082092	0.029297	-0.10376	-0.003052	-0.007324	0.16144	0.004883	0.12619	-0.1799	0.92224	0.061188	0.13336	0.093842	-0.13443	-0.18692	0.049438	0.40588	0.013733	-0.015717	-0.36468	-0.16449	-0.017853	-0.24475	-0.009155	-0.061035	-0.09201	0.001373	-0.00885
5.54	0.029907	0.016632	0.69916	-0.003357	0.018005	-0.027161	-0.06073	-0.002899	-0.017395	-0.28427	0.00473	0.077972	-0.037689	0.99197	0.006104	-0.31143	0.083618	-0.084686	-0.26382	0.13138	0.32105	0.08255	-0.19134	-0.35599	-0.18768	-0.009155	-0.54367	-0.006714	0.088654	-0.16174	-0.000458	-0.008545
5.541	0.034943	-0.00473	0.61951	0	-0.019531	-0.10422	-0.042725	-0.001984	-0.014496	-0.017853	-0.00473	-0.21576	0.30228	0.79758	-0.064697	-0.23789	0.029144	-0.07431	-0.26749	0.12558	0.41138	0.1004	-0.60532	-0.20584	-0.084229	0.002594	-0.29495	0.00412	0.19638	-0.15686	0.002441	-0.005798
5.542	0.033569	-0.028076	0.69885	-0.001068	-0.014954	-0.1265	-0.022125	0.001526	-0.0177	0.050659	-0.011444	0.32791	0.27405	0.68603	-0.045471	0.18799	0.025177	-0.088348	-0.21683	0.065155	0.62882	0.016479	-0.59662	-0.21591	-0.14725	-0.00412	0.032654	-0.00412	0.13092	-0.11719	0.001068	-0.006866
5.543	0.036011	0.003662	0.6929	0.009308	-0.000305	-0.11108	-0.014801	-0.00473	-0.009308	-0.030212	-0.006561	-0.007324	0.15961	0.28366	-0.013123	-0.121	0.072174	-0.046997	-0.25803	-0.023346	0.47455	-0.0354	-0.37125	-0.25162	-0.014038	-0.007019	-0.45776	-0.009155	0.068207	0.023804	0.002289	-0.011139
5.544	0.03006	0.036163	0.6279	0.000916	-0.022125	-0.039673	0.006714	-0.001068	-0.00412	-0.08316	0.008545	-0.22049	0.051575	-1.308	-0.048828	0.058136	0.11063	0.006409	-0.32272	0.005341	0.15427	0.002899	-0.23941	-0.20569	0.017395	-0.002441	-0.48767	-0.006256	0.21484	0.037689	0.001526	-0.015106
5.545	0.025024	0.039673	0.62302	0.010376	-0.007019	-0.010834	0.038757	0.012054	-0.009155	0.015106	0.010834	0.003815	-0.06958	-2.2617	-0.029907	0.044708	0.068665	0.095673	-0.31509	-0.010529	-0.10254	0.053101	-0.33249	-0.17853	0.25559	-0.012207	0.36606	-0.009613	0.14206	0.020905	0.001526	-0.009155
5.546	0.030823	0.072784	0.63583	0.006866	0.00061	0.003204	0.070801	-0.007019	0.004425	0.031891	0.006256	0.31708	-0.12131	-1.4024	0.002594	-0.13397	0.028381	0.14648	-0.37643	-0.023041	-0.18372	0.042419	-0.24185	0.028839	0.16602	-0.00824	0.45624	-0.009003	0.037231	0.019989	-0.000305	-0.00824
5.547	0.025635	0.080872	0.62973	-0.004272	-0.00412	0.07309	0.09552	0.000305	0.006714	0.077972	0.011139	0.65506	-0.08606	-0.336	-0.038147	-0.053864	0.017853	0.1236	-0.30289	-0.002899	0.073395	0.039978	-0.11322	0.11124	0.091553	-0.002441	0.32074	-0.005646	0.17532	0.062714	0.002136	-0.006409
5.548	0.021362	0.12894	0.70068	-0.009613	-0.019531	0.093536	0.1236	-0.001068	0.004272	0.092773	0.016022	-0.63629	-0.02121	0.29602	-0.050507	0.069275	-0.042114	0.15182	-0.25681	-0.027313	0.12772	0.045471	-0.17487	0.13077	0.18082	-0.002899	0.18768	-0.006256	-0.023956	0.13214	0.001068	-0.003967
5.549	0.018005	0.13657	0.65414	0.016632	-0.009766	0.064545	0.14694	-0.00351	0.021057	-0.022278	0.016785	-0.2005	-0.025482	0.36636	-0.040741	0.055542	-0.028381	0.28748	-0.32852	-0.006714	0.215	-0.032959	-0.19073	0.18265	0.26413	-0.009003	0.22369	-0.008698	-0.27313	0.16663	-0.001984	-0.014801
5.55	0.019989	0.095673	0.59876	0.006104	-0.011749	-0.02533	0.14679	-0.000916	0.039825	-0.17364	0.011444	-0.033264	-0.030975	0.46188	-0.005646	-0.13931	-0.013733	0.26733	-0.23422	-0.025635	0.24017	-0.17929	-0.048523	0.10864	0.1416	-0.008545	0.082245	-0.002594	-0.28946	0.16907	0.000458	-0.007324
5.551	0.023956	0.10178	0.63568	0.007019	-0.008698	-0.032806	0.18524	0.00885	0.046387	-0.035706	0.011597	0.1442	0.029907	0.68848	-0.007477	-0.22736	-0.011597	0.16617	-0.29144	-0.04364	0.37369	-0.20065	0.052032	0.10986	0.014191	0.000305	-0.061493	-0.000458	0.59311	0.02243	0.001373	-0.002747
5.552	0.019531	0.10407	0.62973	0.010986	0.017395	-0.045624	0.20309	0.005035	0.052795	0.24292	0.002747	0.044098	0.12543	0.6247	0.009766	0.078735	-0.026855	0.16129	-0.39581	-0.019226	0.36102	-0.2652	0.058289	0.2272	-0.10452	-0.009155	0.041809	-0.006561	0.27298	0.044098	0.004883	-0.001526
5.553	0.019073	0.098114	0.50964	0.007935	-0.00061	-0.039063	0.21729	0.007019	0.045166	0.90775	0.005341	-0.64331	-0.032959	0.39734	-0.003815	-0.25391	-0.02594	0.080719	-0.46402	-0.019836	0.28366	-0.32379	0.048981	0.36011	-0.27771	-0.007324	0.007782	-0.003662	0.17425	0.088348	-0.000153	-0.002136
5.554	0.015564	0.075836	0.47333	0.000153	0.014191	-0.068359	0.22247	0.0177	0.059814	1.08	0.017548	0.00351	-0.10941	0.001068	0.006409	0.25696	-0.020447	0.00885	-0.56503	-0.041351	0.15823	-0.25391	0.022736	0.31891	-0.27222	-0.011902	-0.01297	-0.005951	0.20004	0.13473	-0.001984	-0.011749
5.555	0.01709	0.072784	0.47409	0.001831	-0.051575	-0.053253	0.21759	0.005798	0.086365	1.0081	0.012207	0.058899	-0.091858	0.16159	0.040741	0.040283	0.013428	-0.10346	-0.52719	-0.040741	0.10025	-0.18799	0.10361	0.15411	-0.32638	-0.007172	-0.056763	-0.005951	0.16159	0.087128	0	-0.015869
5.556	0.020447	0.052338	0.46204	0.013123	-0.016785	0.027161	0.17838	0.002747	0.087433	0.086823	0.008698	0.12619	-0.09903	0.071869	0.031586	-0.54138	0.045166	-0.22766	-0.49744	-0.037842	0.076141	-0.21011	0.083466	0.1416	-0.14618	0.000305	0.056152	-0.002747	0.20691	0.054016	0.003357	-0.014648
5.557	0.019684	0.037994	0.44128	0.02182	-0.003967	0.13519	0.21088	0.010529	0.072784	-0.73227	0.005798	0.046997	-0.080261	0.2298	0.026245	-0.62805	0.057526	-0.26352	-0.50949	-0.009766	0.14389	-0.2121	0.048218	0.042419	-0.043488	0.002747	0.22171	-0.003357	0.42023	0.041046	0.001984	-0.015717
5.558	0.021057	0.031891	0.42648	0.006714	-0.012665	0.10529	0.22293	-0.001221	0.074615	-0.97839	0.018463	-0.35416	-0.023041	0.45136	-0.036926	1.9949	0.091248	-0.3157	-0.41885	-0.024872	0.021057	-0.29694	0.062714	-0.052338	0.023956	-0.008545	0.08194	0.005341	0.066986	0.058289	0.005798	-0.01297
5.559	0.020752	0.065918	0.3923	0.00351	0.024719	-0.017395	0.20355	-0.000458	0.079041	-0.87219	0.012207	0.03952	0.11612	0.59219	-0.054016	-0.98465	0.080109	-0.40207	-0.50781	-0.015564	-0.23911	-0.25482	0.018158	-0.1622	0.038452	-0.007782	0.15243	-0.000916	0.25772	0.055695	0.003204	-0.01358
5.56	0.025177	0.071869	0.39093	0.007629	0.064545	-0.16312	0.20325	-0.006561	0.066223	-0.2594	0.002747	-0.060577	0.15961	0.42816	0.010071	0.34576	0.009766	-0.33005	-0.60806	-0.020447	-0.14191	-0.16892	0.002289	-0.26154	0.03006	-0.00885	0.19196	-0.001373	-0.10849	-0.005646	0.001068	-0.014648
5.561	0.015717	0.0383	0.35782	-0.005951	0.077515	-0.14862	0.2182	-0.002441	0.051422	0.36407	0.005035	0.36407	0.16556	0.037689	-0.014343	0.52246	-0.083618	-0.31815	-0.47348	-0.025482	-0.014648	-0.13596	-0.043793	-0.067291	0.04715	-0.014648	0.14923	-0.000916	-0.10971	-0.014343	-0.001678	-0.019073
5.562	0.009613	0.00351	0.36041	-0.000458	0.015869	0.015411	0.20523	-0.002594	0.050354	0.5426	-0.008087	-0.53497	0.07782	-0.35843	0.002747	0.32196	-0.13092	-0.31433	-0.30655	-0.047913	0.13397	-0.069122	-0.15533	0.049744	0.32806	-0.005493	0.18509	-0.003052	0.10956	-0.035553	-0.000916	-0.012207
5.563	0.010071	0.034027	0.3215	0.02121	0.001678	0.08728	0.18723	0.00351	0.056458	0.57068	-0.013428	0.004272	0.060425	-0.8699	0.020447	0.051727	-0.074463	-0.32974	-0.24445	-0.053406	0.14938	-0.082397	-0.25787	0.084229	0.75378	-0.008545	0.096588	-0.000458	0.013428	-0.040741	-0.000153	-0.017395
5.564	0.007935	0.027313	0.32623	-0.023499	-0.004272	0.040588	0.17425	-0.004425	0.03418	0.54428	-0.02655	0.088654	0.016937	-1.2558	0.020142	-0.31418	-0.060577	-0.41962	-0.38925	-0.048065	0.21637	-0.14374	-0.34653	0.30655	0.86578	-0.009155	-0.04776	0.001068	-0.12543	-0.042725	-0.000153	-0.019989
5.565	0.004578	0.069885	0.32455	0.004578	-0.039063	0.010071	0.15091	-0.000153	0.029755	0.58395	0.008392	0.021973	-0.028076	-0.88745	0.018311	0.05722	-0.062866	-0.37155	-0.49667	-0.049286	0.25589	-0.19852	-0.22278	0.17899	0.38757	-0.012207	-0.022125	0.002899	-0.065002	-0.024567	-0.003662	-0.009003
